<?xml version="1.0" encoding="UTF-8"?>
<svg version="1.1" xmlns="http://www.w3.org/2000/svg" width="512" height="512">
<path d="M0 0 C2.875 1.4375 2.875 1.4375 5 4 C5.71252614 7.13166733 5.92443785 9.91129002 5 13 C1.60072675 16.05387002 -1.87958751 18.1010454 -5.98828125 20.06640625 C-7.1589917 20.62956543 -8.32970215 21.19272461 -9.53588867 21.77294922 C-10.79459272 22.36981717 -12.0534668 22.96632667 -13.3125 23.5625 C-14.60471769 24.17954852 -15.89678975 24.79690213 -17.1887207 25.41455078 C-25.66243002 29.45617096 -34.16401158 33.43951843 -42.6875 37.375 C-43.70175049 37.84494385 -44.71600098 38.3148877 -45.76098633 38.79907227 C-46.68935303 39.22373779 -47.61771973 39.64840332 -48.57421875 40.0859375 C-49.38463623 40.4576709 -50.19505371 40.8294043 -51.0300293 41.21240234 C-53 42 -53 42 -55 42 C-55 42.66 -55 43.32 -55 44 C-54.31929443 44.09966064 -53.63858887 44.19932129 -52.93725586 44.30200195 C-49.38773785 45.14549559 -46.2713637 46.59124255 -43.00390625 48.16796875 C-42.33391098 48.48526443 -41.66391571 48.80256012 -40.97361755 49.12947083 C-38.8340473 50.1435867 -36.69808408 51.16501995 -34.5625 52.1875 C-29.05279397 54.81575542 -23.53404985 57.42338013 -18 60 C-17.33667664 60.31132874 -16.67335327 60.62265747 -15.9899292 60.94342041 C-14.0922332 61.82771113 -12.18674861 62.69211859 -10.27734375 63.55078125 C-9.18542725 64.04876221 -8.09351074 64.54674316 -6.96850586 65.05981445 C-1.47268196 66.80045248 2.31746402 64.54264741 7.328125 62.1484375 C7.94218201 61.85724533 8.55623901 61.56605316 9.18890381 61.26603699 C10.51713524 60.63582038 11.84426912 60.00328642 13.17041016 59.36868286 C16.0006039 58.01634167 18.83851723 56.68059709 21.67614746 55.34394836 C23.92203015 54.28598732 26.16718426 53.22649523 28.41210938 52.16650391 C29.54507446 51.63165375 29.54507446 51.63165375 30.70092773 51.08599854 C32.23521009 50.36125908 33.76922668 49.63595673 35.30297852 48.91009521 C39.80888119 46.77848239 44.32138887 44.6621596 48.84411621 42.56646729 C50.27132422 41.90183492 51.69594515 41.23161617 53.11779785 40.55560303 C55.11384324 39.60733116 57.11799162 38.6787008 59.125 37.75390625 C60.26195312 37.22095947 61.39890625 36.6880127 62.5703125 36.13891602 C66.74915575 34.75122355 69.61781103 34.6594377 74 35 C76.43119623 36.87015094 77.64069173 38.28138345 79 41 C79.10585877 42.72977412 79.14877551 44.463567 79.16113281 46.1965332 C79.17074036 47.28138504 79.1803479 48.36623688 79.19024658 49.48396301 C79.1966214 51.24953804 79.1966214 51.24953804 79.203125 53.05078125 C79.20882507 54.25687546 79.21452515 55.46296967 79.22039795 56.70561218 C79.22985846 59.26198445 79.23638609 61.81836898 79.24023438 64.37475586 C79.24993394 68.28586127 79.28094591 72.19644003 79.3125 76.10742188 C79.31903044 78.58853854 79.32428075 81.06965897 79.328125 83.55078125 C79.3404718 84.72175858 79.3528186 85.8927359 79.36553955 87.09919739 C79.36253845 88.19350571 79.35953735 89.28781403 79.35644531 90.4152832 C79.36191376 91.85518364 79.36191376 91.85518364 79.36749268 93.32417297 C78.92471237 96.54819234 77.92380819 98.39155365 76 101 C73.62251194 102.46217157 71.41434245 103.65479324 68.8984375 104.8125 C67.83947769 105.32006836 67.83947769 105.32006836 66.75912476 105.83789062 C64.51334109 106.90818579 62.25810522 107.95598344 60 109 C58.56669177 109.67048742 57.13342294 110.34105906 55.70019531 111.01171875 C51.35373151 113.03425543 46.99080405 115.01963774 42.625 117 C41.08270958 117.70170404 39.54047368 118.40352791 37.99829102 119.10546875 C34.31493704 120.7806584 30.62965967 122.45155706 26.94329834 124.12011719 C25.18779877 124.91496884 23.43297022 125.71130207 21.67822266 126.5078125 C19.10014324 127.67676349 16.51977919 128.84036282 13.9375 130 C13.23125488 130.3196875 12.52500977 130.639375 11.79736328 130.96875 C7.23527922 133 7.23527922 133 5 133 C5.06144179 141.3197452 5.13871151 149.63913407 5.23571491 157.95853329 C5.28027942 161.82235023 5.31956529 165.68606511 5.34643555 169.55004883 C5.37260865 173.28500484 5.41310746 177.01956512 5.46318626 180.75427437 C5.47976099 182.17303068 5.49133339 183.59185528 5.49761391 185.0106945 C5.22189445 196.45231034 5.22189445 196.45231034 9 207 C13.52135 210.90011812 18.40489087 210.42139806 24.06347656 210.38476562 C25.07387497 210.3901384 26.08427338 210.39551117 27.12528992 210.40104675 C29.31655212 210.41082022 31.507853 210.41377021 33.69913483 210.41069031 C37.17190474 210.40620964 40.64416575 210.42022153 44.11688232 210.43908691 C51.49457989 210.47587234 58.87222425 210.48957315 66.25 210.5 C74.7873484 210.51209079 83.32444927 210.53372353 91.86168671 210.58000183 C95.27444776 210.59353711 98.6868932 210.58940669 102.09967041 210.58459473 C104.2060994 210.59394057 106.31252496 210.6041107 108.41894531 210.61523438 C109.83136757 210.60601204 109.83136757 210.60601204 111.27232361 210.59660339 C120.73185237 210.68392113 128.87206619 213.04851123 135.81640625 219.75390625 C143.06976233 227.49182892 144.61465812 234.02095184 144.34375 244.59765625 C143.49025602 253.04530689 139.15191239 259.31141156 133 265 C127.37142691 269.0742391 122.54469936 270.12585631 115.71051025 270.12025452 C114.41764603 270.12162918 113.1247818 270.12300385 111.79273987 270.12442017 C110.36215187 270.12088123 108.9315641 270.11724642 107.50097656 270.11352539 C105.99301658 270.11324329 104.48505646 270.11340171 102.97709656 270.1139679 C98.88447672 270.11425496 94.79188615 270.1083728 90.69927311 270.10139394 C86.42181102 270.0951454 82.14434827 270.09455541 77.86688232 270.09336853 C69.76737734 270.09025965 61.66788584 270.08205221 53.56838679 270.07201904 C44.34718959 270.06084417 35.12599174 270.05534398 25.90478945 270.05032361 C6.93651865 270.03986925 -12.03173959 270.02227836 -31 270 C-31.13954102 271.09940918 -31.27908203 272.19881836 -31.42285156 273.33154297 C-33.0244225 283.51140965 -40.9216147 290.79313917 -48.87890625 296.64453125 C-54.74979199 300.39627591 -61.34341348 302.10987026 -68.25244141 302.16113281 C-69.30098297 302.17074036 -70.34952454 302.1803479 -71.42984009 302.19024658 C-72.55900848 302.19449646 -73.68817688 302.19874634 -74.8515625 302.203125 C-76.0207724 302.20882507 -77.1899823 302.21452515 -78.3946228 302.22039795 C-80.87098283 302.22984459 -83.34735542 302.23638059 -85.82373047 302.24023438 C-89.58974545 302.24990943 -93.35520752 302.28092438 -97.12109375 302.3125 C-99.53124677 302.31903348 -101.94140369 302.3242826 -104.3515625 302.328125 C-105.46858551 302.3404718 -106.58560852 302.3528186 -107.73648071 302.36553955 C-119.59591956 302.33219729 -130.06720021 299.27189086 -139.0078125 291.18359375 C-148.34780434 281.17645964 -150.49799765 270.80889137 -150.2734375 257.5625 C-149.86463381 247.70264064 -145.75640995 240.05975897 -139 233 C-131.593208 226.22807589 -122.6636598 221.92718577 -112.57983398 221.82299805 C-111.49447861 221.81016281 -110.40912323 221.79732758 -109.2908783 221.78410339 C-108.1210994 221.77671646 -106.9513205 221.76932953 -105.74609375 221.76171875 C-103.92924828 221.74961113 -103.92924828 221.74961113 -102.07569885 221.73725891 C-99.50938341 221.72342686 -96.94304964 221.71270078 -94.37670898 221.70483398 C-90.47668914 221.68767245 -86.57752838 221.6437822 -82.67773438 221.59960938 C-80.17969371 221.58947743 -77.68164586 221.5809629 -75.18359375 221.57421875 C-73.45017982 221.54795662 -73.45017982 221.54795662 -71.68174744 221.52116394 C-60.5073822 221.55068422 -50.60087739 224.68356366 -42 232 C-36.70150985 237.56079165 -31 245.01958536 -31 253 C-11.51144222 252.9161525 7.97702941 252.82103856 27.46546555 252.71247292 C36.51406917 252.66232854 45.56266365 252.61588583 54.61132812 252.578125 C62.49716914 252.54520737 70.38293958 252.50537743 78.26870275 252.45720994 C82.44502923 252.43194267 86.62130889 252.41016206 90.79769135 252.39665604 C94.72766147 252.38383775 98.65747101 252.3617859 102.58735275 252.33261681 C104.03050629 252.32353921 105.47368569 252.31785037 106.9168663 252.31578636 C108.8860813 252.3124653 110.85526042 252.29581441 112.82440186 252.2784729 C113.92686626 252.27294214 115.02933067 252.26741138 116.16520309 252.26171303 C119.0042281 251.99960966 120.62502332 251.53711714 123 250 C125.84932814 246.54010155 126.5381438 243.48252586 126.3515625 238.99609375 C125.75399206 235.60322159 124.24456842 233.54788848 122 231 C117.24115911 228.28153978 112.16170595 228.72176576 106.84472656 228.74462891 C105.82457458 228.74100845 104.80442261 228.737388 103.75335693 228.73365784 C101.54080346 228.72677139 99.32823303 228.72425699 97.11566925 228.72560501 C93.60936528 228.72657111 90.10336713 228.71361696 86.59710693 228.69662476 C76.62888975 228.65038301 66.66070356 228.62575434 56.69238281 228.61914062 C50.59161138 228.61411713 44.49115867 228.58982279 38.3904953 228.55381393 C36.07018704 228.54403418 33.74983482 228.54167398 31.42951202 228.54698563 C28.1769472 228.55408097 24.92532721 228.53672155 21.67285156 228.51416016 C20.72188599 228.52233261 19.77092041 228.53050507 18.7911377 228.53892517 C9.63779675 228.42645316 2.4790754 225.28314014 -4.20703125 219.05078125 C-13.06652268 208.91737602 -12.16638577 196.43970404 -12.31640625 183.78125 C-12.33701168 182.31294213 -12.358009 180.84463971 -12.37937927 179.37634277 C-12.43422975 175.53613741 -12.48380019 171.69588185 -12.53222656 167.85559082 C-12.58271424 163.92711998 -12.63825709 159.99872085 -12.69335938 156.0703125 C-12.80048715 148.38026929 -12.90203031 140.69016592 -13 133 C-14.43666016 132.3498291 -14.43666016 132.3498291 -15.90234375 131.68652344 C-19.48883174 130.06293216 -23.07438259 128.43728015 -26.65966797 126.81103516 C-28.20531533 126.11028579 -29.7512092 125.41007983 -31.29736328 124.71044922 C-33.53224208 123.69905475 -35.76619824 122.68564566 -38 121.671875 C-38.68054443 121.36441345 -39.36108887 121.0569519 -40.06225586 120.74017334 C-55.24471422 113.83968764 -55.24471422 113.83968764 -57 110 C-57.49074537 106.07403706 -57.63707739 103.9311131 -55.375 100.625 C-52.46563606 98.63438257 -50.50421789 98.29824841 -47 98 C-44.29370117 98.76928711 -44.29370117 98.76928711 -41.54296875 100.02734375 C-40.52050049 100.48657227 -39.49803223 100.94580078 -38.44458008 101.41894531 C-37.36974365 101.92006836 -36.29490723 102.42119141 -35.1875 102.9375 C-34.07979248 103.43733398 -32.97208496 103.93716797 -31.83081055 104.45214844 C-26.77912541 106.7432119 -21.7636144 109.09678644 -16.7890625 111.55078125 C-16.02311768 111.92533447 -15.25717285 112.2998877 -14.46801758 112.68579102 C-13.07198509 113.37503166 -11.68313568 114.07909888 -10.3034668 114.80053711 C-5.95841061 116.96148366 -3.66053505 117.15330802 1 116 C4.04072588 114.81335367 6.97563639 113.43002387 9.921875 112.02734375 C10.78073303 111.62600723 11.63959106 111.22467072 12.5244751 110.81117249 C15.26961953 109.52685635 18.00994596 108.23263575 20.75 106.9375 C24.32680372 105.25629247 27.90535101 103.57881885 31.484375 101.90234375 C32.79770813 101.28678116 32.79770813 101.28678116 34.13757324 100.65878296 C40.13881607 97.85249584 46.15746652 95.08823906 52.203125 92.37890625 C53.3427066 91.86407936 53.3427066 91.86407936 54.50531006 91.33885193 C59.7626393 89 59.7626393 89 62 89 C62 78.44 62 67.88 62 57 C58.56139635 58.55771331 55.12281496 60.11542599 51.68530273 61.67553711 C48.70919971 63.02611112 45.73196803 64.37415854 42.75415039 65.72094727 C35.42098615 69.04320064 28.1107581 72.4012151 20.85546875 75.890625 C19.58897661 76.49542775 18.32237753 77.10000663 17.05566406 77.7043457 C14.69084653 78.83279362 12.3380311 79.97922105 9.98730469 81.13745117 C8.91770508 81.64767822 7.84810547 82.15790527 6.74609375 82.68359375 C5.36442017 83.35733032 5.36442017 83.35733032 3.95483398 84.04467773 C-2.89070846 86.25789822 -8.01590309 85.08388884 -14.26953125 81.921875 C-14.94884201 81.59519836 -15.62815277 81.26852173 -16.32804871 80.9319458 C-18.4969323 79.88578587 -20.6548938 78.8191959 -22.8125 77.75 C-25.60738587 76.38380239 -28.40667177 75.02681242 -31.20703125 73.671875 C-31.92972198 73.32056519 -32.65241272 72.96925537 -33.39700317 72.6072998 C-44.79359804 67.11132523 -56.41861487 62.09133239 -68 57 C-67.99111755 58.11864441 -67.98223511 59.23728882 -67.9730835 60.38983154 C-67.89204261 70.92528841 -67.83205616 81.46068216 -67.79275131 91.99637985 C-67.77186501 97.41308316 -67.74352807 102.82953511 -67.69824219 108.24609375 C-67.65482203 113.47212448 -67.63087075 118.69791324 -67.62049103 123.92411041 C-67.6130928 125.91926127 -67.59864596 127.9143987 -67.57707977 129.90944672 C-67.5480968 132.70131686 -67.54404187 135.49218363 -67.54589844 138.28417969 C-67.53151733 139.11136505 -67.51713623 139.93855042 -67.50231934 140.790802 C-67.52818751 144.37922978 -67.66596186 146.54279281 -69.8135376 149.48223877 C-72.93662518 151.65017052 -75.21562449 152 -79 152 C-82.42741629 149.91374661 -83.72481037 148.8255689 -85 145 C-85.09446862 143.5772441 -85.13484382 142.15051763 -85.14044189 140.72463989 C-85.14615204 139.85266968 -85.15186218 138.98069946 -85.15774536 138.08230591 C-85.15942215 136.65155228 -85.15942215 136.65155228 -85.16113281 135.19189453 C-85.16858017 133.6817276 -85.16858017 133.6817276 -85.17617798 132.14105225 C-85.19080312 128.80496542 -85.19760188 125.46892614 -85.203125 122.1328125 C-85.20887575 119.81737262 -85.21463349 117.50193276 -85.22039795 115.18649292 C-85.23090866 110.32924172 -85.23675101 105.47200707 -85.24023438 100.61474609 C-85.24572206 94.38805809 -85.26975582 88.16158843 -85.29820633 81.93496895 C-85.31682029 77.15147256 -85.32203763 72.36802891 -85.32357025 67.58449936 C-85.32659964 65.28876424 -85.33463775 62.99303011 -85.34775543 60.69733047 C-85.36479113 57.48701554 -85.36294165 54.2772362 -85.35644531 51.06689453 C-85.3656601 50.11710724 -85.37487488 49.16731995 -85.3843689 48.18875122 C-85.35355921 43.333635 -85.26102287 39.88296792 -82 36 C-79.66793977 34.55846265 -77.50548863 33.38869043 -75.03515625 32.25 C-74.33810074 31.91478836 -73.64104523 31.57957672 -72.92286682 31.23420715 C-70.64249818 30.14203631 -68.35292903 29.07089048 -66.0625 28 C-64.47846394 27.24682142 -62.89497214 26.49249719 -61.31201172 25.73706055 C-56.55079746 23.47103828 -51.7765603 21.23344703 -47 19 C-45.60555776 18.34602311 -44.21118589 17.69189617 -42.81689453 17.03759766 C-35.92868775 13.80810569 -29.03274213 10.59563944 -22.11035156 7.43994141 C-19.90787083 6.42030001 -17.71817594 5.37282826 -15.53808594 4.30615234 C-14.39887695 3.75523926 -13.25966797 3.20432617 -12.0859375 2.63671875 C-11.06290527 2.13229248 -10.03987305 1.62786621 -8.98583984 1.1081543 C-5.73301448 -0.09908808 -3.44124707 -0.31303163 0 0 Z M-127.875 246.9375 C-128.42929688 247.58589844 -128.98359375 248.23429688 -129.5546875 248.90234375 C-133.67977895 254.88930081 -133.71608142 260.94935212 -133 268 C-131.24375098 274.58037606 -126.59827616 279.31430217 -121 283 C-115.36125414 285.46716298 -109.87339837 285.33966022 -103.828125 285.37109375 C-102.21173126 285.38463646 -102.21173126 285.38463646 -100.56268311 285.39845276 C-98.28660854 285.41293058 -96.0104926 285.42183584 -93.734375 285.42553711 C-90.27531714 285.43741308 -86.8180558 285.48660869 -83.359375 285.53710938 C-81.14063364 285.54657705 -78.9218814 285.55381043 -76.703125 285.55859375 C-75.67987122 285.57812607 -74.65661743 285.59765839 -73.60235596 285.61778259 C-65.6935193 285.56877967 -58.95649849 283.68768462 -53.05352783 278.18577576 C-47.65419924 272.32681588 -46.52205997 266.85411466 -46.6953125 259 C-47.45609749 251.50919394 -51.27624253 247.25752169 -56.8046875 242.4453125 C-62.94399353 238.40342063 -69.3730587 238.67895173 -76.4609375 238.6640625 C-77.56547272 238.6574057 -78.67000793 238.6507489 -79.80801392 238.64389038 C-82.13957052 238.63378619 -84.4711559 238.62907267 -86.80273438 238.62939453 C-90.35595688 238.62502343 -93.90793467 238.58868388 -97.4609375 238.55078125 C-99.73176661 238.54491213 -102.00260159 238.54094337 -104.2734375 238.5390625 C-105.32888763 238.52469147 -106.38433777 238.51032043 -107.47177124 238.49551392 C-115.79061411 238.54664628 -122.33012137 240.23854375 -127.875 246.9375 Z " fill="#5176A3" transform="translate(259,164)"/>
<path d="M0 0 C0.66495988 -0.00235223 1.32991976 -0.00470446 2.01502994 -0.00712797 C4.25302776 -0.01380826 6.49096739 -0.01336004 8.72897434 -0.01294994 C10.34578574 -0.01624914 11.96259632 -0.01997483 13.57940584 -0.02409142 C18.03013356 -0.03411262 22.48084779 -0.03782839 26.93158519 -0.04048073 C31.72852551 -0.04438326 36.52545515 -0.05396142 41.32238865 -0.0626936 C52.90853148 -0.08245624 64.49467519 -0.09252254 76.08083066 -0.10142139 C81.53386403 -0.10580335 86.98689642 -0.11117028 92.43992901 -0.11641026 C110.56014746 -0.13341995 128.68036531 -0.14791601 146.80059052 -0.155159 C151.50283846 -0.15706895 156.2050864 -0.15898928 160.90733433 -0.16094494 C162.07608176 -0.16142868 163.24482919 -0.16191242 164.44899321 -0.16241082 C183.3987803 -0.17071824 202.3485044 -0.19606831 221.29826396 -0.22852562 C240.74253939 -0.26155925 260.18678276 -0.27960428 279.63108641 -0.28280324 C290.55295567 -0.28497143 301.47473301 -0.29376547 312.39657497 -0.31926441 C321.69403729 -0.3409207 330.99138535 -0.34904679 340.28887003 -0.33929763 C345.03480607 -0.33473859 349.7805061 -0.33673198 354.5264101 -0.35605907 C358.86835647 -0.37358899 363.20989289 -0.37277647 367.55184299 -0.35716178 C369.1251582 -0.35477019 370.69850105 -0.35918898 372.27177381 -0.37099043 C374.40624887 -0.38601386 376.53925325 -0.37650559 378.6736908 -0.36076355 C380.45379489 -0.36222876 380.45379489 -0.36222876 382.26986068 -0.36372358 C386.04393653 0.23670382 387.71330029 1.46471279 390.39976597 4.13422108 C391.06382847 6.35297108 391.06382847 6.35297108 391.02476597 8.63422108 C391.03765659 9.38703358 391.05054722 10.13984608 391.06382847 10.91547108 C390.06894855 14.23954046 388.26187667 15.25066976 385.39976597 17.13422108 C382.29024744 17.63397509 382.29024744 17.63397509 378.72333622 17.63364983 C378.06228762 17.63905479 377.40123901 17.64445975 376.72015864 17.6500285 C374.50112363 17.66330265 372.28320511 17.6480613 370.06419468 17.63301563 C368.45889064 17.63674204 366.85358988 17.64223088 365.24829721 17.64933246 C360.83391329 17.66380319 356.41988155 17.65340114 352.00551009 17.63904941 C347.24606595 17.6279492 342.48667495 17.63992326 337.72723484 17.64923573 C329.47903287 17.66233628 321.23093221 17.66115518 312.982728 17.65064144 C301.05173235 17.63571588 289.12085581 17.64560583 277.18986696 17.66216063 C257.82607359 17.68863174 238.46230691 17.69948016 219.09849644 17.69843006 C217.93928635 17.69837174 216.78007626 17.69831342 215.5857386 17.69825333 C210.88855931 17.69798747 206.19138002 17.69767018 201.49420074 17.69729007 C188.5631453 17.69632375 175.63209067 17.69765166 162.7010355 17.70038319 C161.54323485 17.70062308 160.38543421 17.70086297 159.19254869 17.70111013 C139.90191142 17.70551353 120.61129897 17.72173401 101.32067633 17.74560398 C89.41657205 17.75969249 77.5125619 17.76253863 65.60845435 17.75098109 C57.4555049 17.74366981 49.30260295 17.74670167 41.14965808 17.75793952 C36.44223743 17.76402529 31.73494951 17.76506722 27.02753735 17.75306225 C22.72084235 17.74214492 18.41438322 17.74488457 14.10769826 17.75860571 C12.54720337 17.76110821 10.98669043 17.75849421 9.42621487 17.75033183 C7.30925229 17.73997142 5.19312757 17.74797918 3.07619572 17.76063347 C1.89911501 17.76036378 0.72203431 17.76009409 -0.4907155 17.75981623 C-4.79382934 18.27793717 -7.41867559 19.8682656 -10.35023403 23.00922108 C-13.16064079 27.78691256 -12.8014577 33.31620556 -12.91664028 38.71625233 C-12.93742138 39.53043125 -12.95820248 40.34461018 -12.9796133 41.18346119 C-13.04472866 43.77113287 -13.10381611 46.35890161 -13.16273403 48.94672108 C-13.20595545 50.70649653 -13.24957088 52.46626236 -13.29359341 54.22601795 C-13.40037084 58.52865416 -13.50174421 62.8313875 -13.60023403 67.13422108 C-11.62159359 67.12089741 -11.62159359 67.12089741 -9.60298061 67.10730457 C2.81615227 67.02628783 15.23523168 66.96628876 27.65456867 66.92697239 C34.03979838 66.90608006 40.4248151 66.8777318 46.80992222 66.83246326 C52.96962426 66.78906509 59.12912117 66.76509638 65.28896427 66.7547121 C67.64136835 66.74730996 69.99376095 66.73285567 72.34607792 66.71130085 C75.63603241 66.68234781 78.92513467 66.67826179 82.21519566 66.68011951 C83.19199284 66.66573841 84.16879002 66.65135731 85.17518711 66.63654041 C91.77437288 66.67697578 91.77437288 66.67697578 95.00309849 69.03760242 C96.94598568 71.95418321 96.96590354 73.81881824 96.79429722 77.23187733 C96.18588489 80.16550903 94.78830083 81.42812475 92.39976597 83.13422108 C89.62431188 84.05937244 87.9901706 84.25796091 85.1287241 84.25447559 C83.82255131 84.25653759 83.82255131 84.25653759 82.48999119 84.25864124 C81.53765095 84.25504597 80.58531071 84.25145069 79.60411167 84.24774647 C78.59905582 84.24789249 77.59399998 84.24803852 76.55848789 84.24818897 C73.23081917 84.24749136 69.90320618 84.23970602 66.57554722 84.23187733 C64.27054977 84.23001261 61.96555192 84.22858896 59.66055393 84.22758961 C53.58931989 84.22376867 47.51810971 84.21394197 41.44688511 84.20288563 C35.25344764 84.19266243 29.06000632 84.18809003 22.86656284 84.1830492 C10.71095339 84.17231935 -1.44463834 84.15524797 -13.60023403 84.13422108 C-13.51634665 108.78630349 -13.42121783 133.43832035 -13.31270695 158.09030724 C-13.26258554 169.5366536 -13.21614251 180.98299281 -13.17835903 192.42938709 C-13.14541758 202.40607704 -13.10557436 212.38271147 -13.05744398 222.35934013 C-13.03220049 227.64185275 -13.01041278 232.92432863 -12.99689007 238.20688534 C-12.98405031 243.18005312 -12.96197506 248.15309479 -12.93285084 253.12619305 C-12.92379007 254.95026631 -12.91808833 256.77435988 -12.91602039 258.59845448 C-12.91268726 261.09221386 -12.89718148 263.58561802 -12.87870693 266.0793047 C-12.88064167 266.79819498 -12.8825764 267.51708527 -12.88456976 268.25776011 C-12.82157525 273.96007534 -11.38707574 278.77369596 -9.60023403 284.13422108 C-5.78234443 286.20536416 -2.43887391 286.3863116 1.85179234 286.3925066 C3.80755444 286.4027486 3.80755444 286.4027486 5.80282688 286.41319752 C7.24073915 286.41077833 8.67865114 286.40819407 10.11656284 286.40546131 C11.63626477 286.40985013 13.1559643 286.41515285 14.67566013 286.42129993 C17.94410771 286.4327878 21.21249055 286.43825845 24.48095798 286.43918133 C29.6495512 286.44112353 34.81801063 286.45918423 39.98655796 286.47993946 C52.82292606 286.52910433 65.6593304 286.56002327 78.49577427 286.58124256 C88.47476917 286.59776229 98.4536492 286.62056149 108.43256712 286.66426331 C113.57023357 286.68604715 118.70768182 286.69409688 123.84539127 286.69187057 C127.04148234 286.69353712 130.23743084 286.70758411 133.43347073 286.72508335 C134.91491694 286.73068312 136.39639271 286.73116782 137.877841 286.72614574 C139.9011455 286.72000605 141.92448117 286.73398073 143.9477396 286.74895191 C145.64561996 286.7519689 145.64561996 286.7519689 147.37780094 286.75504684 C150.77530296 287.18134073 152.66482123 288.10646472 155.39976597 290.13422108 C156.96447829 293.26364573 157.09678555 296.74504331 156.39976597 300.13422108 C154.20244055 302.9781979 153.02118266 304.02875345 149.43393517 304.63758564 C147.68715744 304.63984779 147.68715744 304.63984779 145.90509129 304.64215565 C144.92943731 304.65151559 144.92943731 304.65151559 143.93407315 304.66106462 C141.75600813 304.67701067 139.57905985 304.66438515 137.40098667 304.6517992 C135.83865805 304.65721992 134.27633454 304.66434231 132.71402073 304.67303944 C128.46985976 304.6912894 124.22608737 304.6841965 119.98191953 304.67152309 C115.53648949 304.66139506 111.0910927 304.67078906 106.64566135 304.67706776 C99.17471953 304.68434853 91.70393575 304.67474918 84.23301792 304.65570545 C75.60904289 304.63397564 66.98544672 304.64095791 58.36148101 304.66301107 C50.95067246 304.68120045 43.53997759 304.68370495 36.12915391 304.6732564 C31.70618058 304.66703573 27.28338485 304.66614557 22.86042309 304.67940235 C18.69636737 304.69101038 14.53279624 304.68284543 10.36879253 304.65982533 C8.8454859 304.65456282 7.32213807 304.65600965 5.79884815 304.66487598 C-5.90549302 304.72668646 -14.13892647 303.10975758 -22.87367153 295.00140858 C-27.5719121 289.92050588 -29.71875814 284.48216049 -29.73445511 277.60665321 C-29.74114187 276.24450808 -29.74114187 276.24450808 -29.74796373 274.85484487 C-29.74777936 273.86098875 -29.747595 272.86713264 -29.74740505 271.84315968 C-29.75108174 270.78436845 -29.75475843 269.72557723 -29.75854653 268.63470143 C-29.76958887 265.07504751 -29.77342815 261.51542277 -29.77723598 257.95575428 C-29.78350018 255.40822221 -29.79014694 252.86069105 -29.7971487 250.3131609 C-29.81637816 242.66029009 -29.82697691 235.00742441 -29.83587649 227.35453561 C-29.84026192 223.74896854 -29.84562805 220.14340294 -29.85086536 216.53783703 C-29.86787551 204.54943904 -29.88236938 192.56104195 -29.88961411 180.57263374 C-29.89152394 177.46271037 -29.89344428 174.352787 -29.89540005 171.24286366 C-29.89588379 170.46992661 -29.89636753 169.69698957 -29.89686593 168.9006302 C-29.90516518 156.38125707 -29.93050126 143.86197952 -29.96298072 131.34264813 C-29.9960679 118.48406501 -30.01406434 105.62553044 -30.01725835 92.76690453 C-30.01942185 85.5493662 -30.02814704 78.33196728 -30.05371952 71.11447048 C-30.07772365 64.32402921 -30.08124183 57.53388199 -30.07095814 50.74339199 C-30.07046217 48.25253433 -30.07680052 45.76166442 -30.09051418 43.27084446 C-30.1082046 39.86699576 -30.10113994 36.46405007 -30.08798122 33.06020069 C-30.10443509 31.58614693 -30.10443509 31.58614693 -30.12122136 30.08231431 C-30.03953967 21.31400652 -27.32714421 14.2142373 -21.37757778 7.70453358 C-14.9457969 2.02194915 -8.41793562 0.01268869 0 0 Z " fill="#1AC6BD" transform="translate(75.60023403167725,45.86577892303467)"/>
<path d="M0 0 C1.14508026 -0.00700928 2.29016052 -0.01401855 3.46994019 -0.02124023 C7.26015373 -0.03886486 11.04962243 -0.0271808 14.83984375 -0.01367188 C17.47013492 -0.01636548 20.10042513 -0.0202468 22.73071289 -0.02526855 C28.24536225 -0.0325436 33.75979726 -0.02296125 39.27441406 -0.00390625 C45.64797042 0.01786253 52.02101495 0.01081103 58.39455891 -0.01121187 C64.52847897 -0.03155758 70.66217229 -0.02939587 76.79611206 -0.01768494 C79.40526399 -0.01501298 82.01442895 -0.01830379 84.62356567 -0.02760315 C88.26762701 -0.03774021 91.91069994 -0.02230561 95.5546875 0 C96.63740936 -0.00809692 97.72013123 -0.01619385 98.83566284 -0.02453613 C99.82825104 -0.01325684 100.82083923 -0.00197754 101.84350586 0.00964355 C103.13544106 0.01190571 103.13544106 0.01190571 104.45347595 0.01421356 C107.76815965 0.73219516 108.84842106 1.72365293 110.77734375 4.51757812 C111.16797509 7.45576119 111.31364375 10.0179344 111.27854919 12.95513916 C111.28685079 14.24424324 111.28685079 14.24424324 111.29532009 15.55938983 C111.30895343 18.44450815 111.29394266 21.32876539 111.27905273 24.21386719 C111.28283504 26.2802721 111.28833436 28.34667447 111.29542542 30.41307068 C111.30941219 36.03106775 111.29818598 41.64875965 111.2817142 47.26673985 C111.26787927 53.14468701 111.27432229 59.02261617 111.27784729 64.90057373 C111.28055149 74.77670211 111.26705862 84.6527091 111.24389648 94.52880859 C111.21731492 105.94179795 111.21552956 117.35458394 111.22728485 128.76759362 C111.23807281 139.74639245 111.23186563 150.72511782 111.21772957 161.70391083 C111.21197566 166.37517791 111.21204788 171.04639113 111.21679497 175.717659 C111.22157494 181.22358925 111.21142056 186.72929756 111.18984032 192.23518562 C111.18428512 194.25396794 111.18379549 196.27277163 111.18879318 198.2915554 C111.19476868 201.05197573 111.1821972 203.81172273 111.1650238 206.57208252 C111.17103385 207.3670414 111.17704389 208.16200028 111.18323606 208.98104882 C111.0835042 217.82531865 107.99785048 224.08557831 101.97265625 230.53320312 C96.28625246 235.67322648 89.92558973 237.63719491 82.36927795 237.66474915 C81.71616857 237.66842583 81.06305918 237.67210252 80.39015859 237.67589062 C78.19767917 237.68691999 76.00524715 237.69076996 73.81274414 237.69458008 C72.24245554 237.70084511 70.67216843 237.70749195 69.10188293 237.7144928 C64.83333825 237.73189442 60.56480476 237.74245151 56.29623342 237.75069833 C53.63060197 237.75584855 50.96497401 237.76192416 48.29934502 237.76820946 C39.96247362 237.78725621 31.62561107 237.80149041 23.2887221 237.80982143 C13.65843234 237.81960356 4.02837184 237.84595059 -5.6018371 237.88632232 C-13.04224024 237.91644644 -20.48257749 237.93128663 -27.92304045 237.93460244 C-32.36882514 237.93695646 -36.81436476 237.94596291 -41.26008415 237.97106361 C-45.4404676 237.99428584 -49.62044357 237.9986014 -53.80087471 237.98830223 C-55.33597796 237.98780539 -56.87110089 237.99416953 -58.40614319 238.00785828 C-60.50045656 238.02549126 -62.59329371 238.0185158 -64.68760681 238.00532532 C-65.8599182 238.00771367 -67.0322296 238.01010202 -68.24006557 238.01256275 C-71.84331635 237.41457465 -73.0141941 236.36840881 -75.22265625 233.51757812 C-76.15132134 229.77366846 -75.72640278 226.45310739 -73.91015625 223.08007812 C-70.65003108 220.06144371 -67.23554397 220.38718141 -63.01113892 220.37281799 C-61.71004684 220.36591949 -60.40895477 220.359021 -59.06843567 220.35191345 C-57.62326064 220.3491988 -56.17808546 220.34656165 -54.73291016 220.34399414 C-53.21350413 220.33768895 -51.69409996 220.33092318 -50.17469788 220.32373047 C-46.90077728 220.30905827 -43.62686383 220.29733446 -40.35292435 220.28778267 C-35.17611591 220.27233681 -29.99936871 220.24838787 -24.82260132 220.22288513 C-10.1011746 220.15166451 4.6202871 220.09189126 19.34179688 220.04077148 C27.47084101 220.01246852 35.5998241 219.97708814 43.72880423 219.93411773 C48.87477835 219.90734424 54.02068341 219.88943974 59.16671348 219.87808049 C62.36934057 219.86895275 65.5718838 219.85159012 68.77446175 219.83190155 C70.25912851 219.82443002 71.74381678 219.82034523 73.22850227 219.81990623 C75.25631323 219.81882253 77.28410396 219.80440256 79.31185913 219.7893219 C80.44637701 219.78508996 81.58089489 219.78085802 82.7497921 219.77649784 C85.88749098 219.50815821 88.02753529 219.05069906 90.77734375 217.51757812 C95.81827907 209.79668523 94.21837317 197.81045608 94.2097168 188.94091797 C94.21874426 187.06753904 94.22907388 185.194166 94.24060059 183.32080078 C94.26808107 178.2595551 94.27744292 173.19842178 94.28345466 168.13711119 C94.29286167 162.83864647 94.31906693 157.5402649 94.34346008 152.24185181 C94.3870648 142.21948265 94.41564878 132.19712969 94.43878347 122.17469466 C94.46586747 110.75987978 94.50977701 99.34514881 94.55507219 87.93039393 C94.64783213 64.45950087 94.71955245 40.9885815 94.77734375 17.51757812 C93.50027557 17.52423996 92.2232074 17.53090179 90.90744019 17.5377655 C78.87152922 17.59858397 66.83564944 17.6435544 54.79961967 17.67301464 C48.61179067 17.6886696 42.42408573 17.70990511 36.23632812 17.74389648 C30.26465765 17.77649548 24.2931065 17.79443242 18.32135391 17.80220985 C16.04318488 17.80775235 13.76502237 17.81857543 11.48690414 17.8347683 C8.29565065 17.85654933 5.1048901 17.85954471 1.91357422 17.8581543 C0.5012426 17.87433304 0.5012426 17.87433304 -0.93962097 17.89083862 C-6.10914001 17.86647136 -9.76918591 17.45793837 -14.22265625 14.51757812 C-15.78736858 11.38815347 -15.91967583 7.90675589 -15.22265625 4.51757812 C-11.66387248 -1.11399395 -5.95463083 -0.04453054 0 0 Z " fill="#5176A3" transform="translate(355.22265625,112.482421875)"/>
<path d="M0 0 C0.76004333 0.3543663 1.52008667 0.7087326 2.30316162 1.07383728 C4.79463709 2.23752864 7.27997079 3.41377665 9.765625 4.58984375 C11.52099287 5.41185768 13.2768601 6.23280605 15.03320312 7.05273438 C18.62840048 8.73146832 22.22189666 10.41376733 25.81445312 12.09814453 C32.65520319 15.29964455 39.52559452 18.4352333 46.39981079 21.5640564 C61.2979786 28.34689044 76.17173145 35.18301274 91.02246094 42.0690918 C98.37899088 45.47836761 105.7417666 48.86588909 113.15234375 52.15625 C114.37966382 52.70563508 115.60680267 53.25542524 116.83374023 53.80566406 C119.04774558 54.79540651 121.26700403 55.77351959 123.49243164 56.73730469 C124.4539917 57.16946289 125.41555176 57.60162109 126.40625 58.046875 C127.23157227 58.40885986 128.05689453 58.77084473 128.90722656 59.14379883 C131.59465779 60.90730887 132.65180372 62.63787792 134.015625 65.52734375 C134.015625 69.08984375 134.015625 69.08984375 133.015625 72.52734375 C129.08788585 76.29849998 124.53083975 78.39255291 119.64453125 80.63671875 C118.84458237 81.00839172 118.04463348 81.3800647 117.22044373 81.76300049 C115.53526146 82.54302854 113.84837869 83.31939212 112.15991211 84.09228516 C109.58389272 85.27469632 107.0175268 86.47647065 104.45117188 87.6796875 C102.80784262 88.43739399 101.16397952 89.19394394 99.51953125 89.94921875 C98.7568544 90.30852478 97.99417755 90.66783081 97.20838928 91.0380249 C92.99980727 92.94096872 89.73274733 94.11442536 85.015625 93.52734375 C81.93198001 91.67715676 80.37657316 90.46580897 79.078125 87.08984375 C78.98804491 83.39656017 79.90922156 80.80781586 82.33154297 78.00439453 C84.20924794 76.35752369 85.91771525 75.50032166 88.2109375 74.51953125 C89.00886719 74.17277344 89.80679688 73.82601562 90.62890625 73.46875 C91.45777344 73.11683594 92.28664063 72.76492187 93.140625 72.40234375 C94.7898935 71.69333618 96.43837563 70.98249563 98.0859375 70.26953125 C98.81570801 69.95870605 99.54547852 69.64788086 100.29736328 69.32763672 C102.00590287 68.65121421 102.00590287 68.65121421 103.015625 67.52734375 C86.37545027 59.67598185 69.70797806 51.89386149 52.94577026 44.30618286 C38.52414305 37.77712246 24.14881991 31.14926706 9.78300476 24.49839783 C8.25611693 23.79309302 6.72807957 23.09027053 5.19880676 22.39015198 C1.98698071 20.9180641 -1.1920689 19.42213873 -4.34472656 17.82519531 C-5.30088867 17.34791992 -6.25705078 16.87064453 -7.2421875 16.37890625 C-8.42385498 15.76136475 -8.42385498 15.76136475 -9.62939453 15.13134766 C-15.01360178 13.75040957 -21.01527815 17.82605094 -25.87109375 20.09765625 C-26.63264267 20.45065292 -27.39419159 20.8036496 -28.17881775 21.16734314 C-29.82006693 21.92847293 -31.46065604 22.69102736 -33.10064697 23.4548645 C-37.50814929 25.50753836 -41.92053761 27.54967221 -46.33203125 29.59375 C-47.67989716 30.21886726 -47.67989716 30.21886726 -49.05499268 30.85661316 C-57.55888014 34.79900433 -66.0815213 38.6996309 -74.609375 42.58984375 C-77.4415553 43.88248618 -80.27356759 45.17549615 -83.10546875 46.46875 C-83.81222748 46.79149902 -84.51898621 47.11424805 -85.24716187 47.44677734 C-94.39519316 51.62621501 -103.53347886 55.82689147 -112.671875 60.02734375 C-113.49834534 60.40722443 -114.32481567 60.7871051 -115.17633057 61.17849731 C-119.77922766 63.29431073 -124.38190139 65.4106093 -128.984375 67.52734375 C-126.75046989 68.64938192 -124.51602125 69.77031428 -122.28125 70.890625 C-121.65331543 71.20616333 -121.02538086 71.52170166 -120.37841797 71.84680176 C-117.71962879 73.17880301 -115.05866168 74.49320252 -112.35644531 75.73510742 C-108.5198478 77.50642194 -106.48695689 78.53772978 -104.984375 82.52734375 C-105.05952549 86.73577139 -105.33238897 88.80084503 -108.171875 91.96484375 C-111.56291992 93.84875759 -113.13751403 93.87200967 -116.984375 93.52734375 C-119.52905756 92.57010755 -121.86110676 91.576602 -124.2890625 90.38671875 C-124.97187286 90.06326477 -125.65468323 89.73981079 -126.35818481 89.40655518 C-128.53057471 88.37423972 -130.69486223 87.32605863 -132.859375 86.27734375 C-134.30549202 85.58749765 -135.75210274 84.89868551 -137.19921875 84.2109375 C-141.13647371 82.33431088 -145.06561629 80.44229003 -148.984375 78.52734375 C-149.70385315 78.17998169 -150.4233313 77.83261963 -151.16461182 77.47473145 C-152.23772614 76.95018372 -152.23772614 76.95018372 -153.33251953 76.41503906 C-154.30899948 75.94049286 -154.30899948 75.94049286 -155.3052063 75.45635986 C-157.66509102 74.15073111 -158.83420518 72.97145463 -159.984375 70.52734375 C-160.484375 67.58984375 -160.484375 67.58984375 -159.984375 64.52734375 C-156.61698558 60.60334195 -153.32817071 58.42889576 -148.65625 56.28515625 C-147.7372718 55.85808128 -147.7372718 55.85808128 -146.79972839 55.42237854 C-144.78268354 54.48833639 -142.75877367 53.5703248 -140.734375 52.65234375 C-139.29589003 51.99024076 -137.85782802 51.32721813 -136.42016602 50.66333008 C-132.67957196 48.93982861 -128.93273814 47.23042082 -125.1831665 45.52655029 C-123.08152624 44.57149262 -120.98078424 43.61449118 -118.88037109 42.65673828 C-113.53587123 40.22050694 -108.18967033 37.78808226 -102.83886719 35.36572266 C-92.03002313 30.47115776 -81.25353388 25.50854151 -70.484375 20.52734375 C-58.477066 14.9755436 -46.46220778 9.44110929 -34.42211914 3.96069336 C-32.97511009 3.30202246 -31.52832886 2.64285083 -30.08178711 1.9831543 C-28.09692924 1.07828236 -26.1111405 0.17548999 -24.125 -0.7265625 C-23.00641602 -1.23517822 -21.88783203 -1.74379395 -20.73535156 -2.26782227 C-12.96867098 -5.66936368 -7.24716267 -3.46809589 0 0 Z " fill="#19C6BC" transform="translate(268.984375,109.47265625)"/>
<path d="M0 0 C1.07185547 -0.01611328 2.14371094 -0.03222656 3.24804688 -0.04882812 C8.90468479 -0.05233069 13.22745342 0.01367223 18.0625 3.3125 C20.06477445 5.83710691 20.07248065 7.07296431 19.9375 10.3125 C18.90220203 13.86209303 17.96802309 15.05347973 15.0625 17.3125 C11.91796875 17.81420898 11.91796875 17.81420898 8.25 17.80859375 C7.59926514 17.81004898 6.94853027 17.81150421 6.27807617 17.81300354 C4.90636707 17.81134833 3.53463868 17.79982896 2.16308594 17.77905273 C0.06885539 17.7500879 -2.02284258 17.75845005 -4.1171875 17.77148438 C-5.45313725 17.76524639 -6.78907903 17.75685497 -8.125 17.74609375 C-9.33542969 17.73634521 -10.54585937 17.72659668 -11.79296875 17.71655273 C-15.17800965 17.281596 -16.58018237 16.7434838 -18.9375 14.3125 C-20.00745896 10.46064776 -20.307511 8.23752749 -18.8125 4.5 C-14.01862432 -1.09285496 -6.74909351 -0.02021897 0 0 Z " fill="#1AC5BD" transform="translate(175.9375,416.6875)"/>
<path d="M0 0 C2.4375 1.5625 2.4375 1.5625 4 4 C4 7.81153499 3.80074051 10.05097421 1.3125 13 C-1.89970645 14.38906225 -3.6936636 14.05521374 -7 13 C-8.9375 11.375 -8.9375 11.375 -10 9 C-9.875 5.375 -9.875 5.375 -9 2 C-5.50875983 -0.32749345 -4.10777749 -0.50299316 0 0 Z " fill="#5276A2" transform="translate(91,81)"/>
<path d="M0 0 C2.375 1.625 2.375 1.625 4 4 C4.5625 7 4.5625 7 4 10 C1.875 12.4375 1.875 12.4375 -1 14 C-4.54334961 14 -6.25666783 13.64741834 -8.9375 11.3125 C-10.40109489 8.12702876 -9.98928968 6.32118677 -9 3 C-6.6975944 -0.63537727 -4.0732876 -0.58189823 0 0 Z " fill="#5176A3" transform="translate(115,81)"/>
<path d="M0 0 C1.9375 1.0625 1.9375 1.0625 3 3 C3.38991688 7.36706908 3.46324069 9.30513897 1 13 C-2.46624583 14.07838759 -4.4113414 14.19195389 -7.875 13.0625 C-10.27841213 10.72977646 -10.37016833 10.20448171 -10.5 7 C-10.32553791 4.56647756 -10.08957482 3.16861142 -8.9375 1 C-5.86784865 -0.58433618 -3.38318857 -0.36248449 0 0 Z " fill="#5175A3" transform="translate(140,81)"/>
</svg>
